<svg width="62" height="65" viewBox="0 0 62 65" fill="none" xmlns="http://www.w3.org/2000/svg">
<g clip-path="url(#clip0_60_141)">
<path d="M55.3551 27.8521L7.23615 34.7869C5.15259 35.0932 3.04087 34.397 1.63306 32.8652C0.619437 31.7512 0 30.2751 0 28.6598C0 25.3178 2.64668 22.5884 5.99727 22.4213C6.22252 22.4213 6.41962 22.3935 6.64487 22.3656L54.7639 15.4588C56.8474 15.1524 58.9591 15.8487 60.3669 17.3804C61.3806 18.4944 62 19.9705 62 21.5858C62 24.9279 59.3533 27.6572 56.0027 27.8243C55.8056 27.7964 55.5804 27.8243 55.3551 27.8521Z" fill="#1C1C1C"/>
<path d="M50.3433 44.2838L11.6567 49.8539C8.16529 49.8539 5.34967 47.0689 5.34967 43.6154C5.34967 40.162 8.16529 37.3769 11.6567 37.3769L50.3433 31.8069C53.8347 31.8069 56.6503 34.5919 56.6503 38.0454C56.6503 41.4709 53.8347 44.2838 50.3433 44.2838Z" fill="#1C1C1C"/>
<path d="M40.1226 61.3561L21.8492 64.1411C18.3579 64.1411 15.5422 61.3561 15.5422 57.9026C15.5422 54.4492 18.3579 51.6642 21.8492 51.6642L40.1226 48.8792C43.614 48.8792 46.4296 51.6642 46.4296 55.1176C46.4578 58.5711 43.614 61.3561 40.1226 61.3561Z" fill="#1C1C1C"/>
<path d="M37.307 14.7625V6.37958C37.307 2.92614 34.4914 0.141113 31 0.141113C27.5086 0.141113 24.693 2.92614 24.693 6.37958V16.5728L37.307 14.7625Z" fill="#1C1C1C"/>
</g>
<defs>
<clipPath id="clip0_60_141">
<rect width="62" height="64" fill="white" transform="translate(0 0.141113)"/>
</clipPath>
</defs>
</svg>
